<svg version="1.1" id="logo" xmlns="http://www.w3.org/2000/svg" x="0" y="0" viewBox="0 0 1024 297" xml:space="preserve">
  <style>
    .st0{fill:#fff}
  </style>
  <path class="st0" d="M0 295.7V106.6c0-15.2 8.9-29 22.7-35.3L179 0v186.1c0 11.8-6.5 22.7-16.9 28.3l-22.8 12.3-69.7-67.2 44.6-20.2v-36.7l-49.3 23v112.6c0 11.4-6.1 22-15.8 27.9L0 295.7zM153.2 40L33.4 94.7c-4.7 2.1-7.7 6.8-7.7 11.9v143.7l10.2-6.1c2-1.2 3.3-3.4 3.3-5.8v-129L112.8 75c6-2.8 12.8-2.3 18.4 1.2 5.5 3.5 8.9 9.6 8.9 16.1v53c0 6.8-4.2 13-10.5 15.5l-14.7 6.6 28.8 27.8 6.2-3.4c2.1-1.1 3.4-3.3 3.4-5.7V40zM256.4 157.3h-5.6c-1 0-1.5-.5-1.5-1.5v-54.3c0-1 .5-1.5 1.5-1.5h20.8c4.3 0 7.7 1.2 10.2 3.7 2.5 2.5 3.7 5.9 3.7 10.2v7.5c0 6.8-2.8 11.1-8.5 12.9v.4l9.9 20.8c.7 1.2.3 1.8-1.2 1.8h-5.5c-1.4 0-2.3-.5-2.8-1.5l-9.5-20.5h-9c-.7 0-1.1.3-1.1.9v19.6c.2 1-.3 1.5-1.4 1.5zm2.5-29.1h11.3c4.4 0 6.6-2.2 6.6-6.5v-7.5c0-4.4-2.2-6.6-6.6-6.6h-11.3c-.7 0-1 .3-1 .9v18.8c.1.6.4.9 1 .9zM313 101.6v54.3c0 1-.5 1.5-1.5 1.5h-5.6c-1 0-1.5-.5-1.5-1.5v-54.3c0-1 .5-1.5 1.5-1.5h5.6c1-.1 1.5.4 1.5 1.5zM331.7 143.4v-2.3c0-1 .5-1.5 1.5-1.5h5.7c1 0 1.5.5 1.5 1.5v1.6c0 2.5.5 4.3 1.6 5.4 1.1 1.1 2.9 1.6 5.5 1.6h6.1c2.6 0 4.4-.6 5.5-1.7 1.1-1.2 1.7-3 1.7-5.7v-2c0-1.9-.7-3.4-2.2-4.5-1.5-1.1-3.3-1.8-5.4-2.1-2.1-.3-4.5-.8-7-1.4-2.6-.6-4.9-1.3-7-2-2.1-.8-3.9-2.2-5.4-4.4-1.5-2.1-2.2-4.9-2.2-8.2V114c0-4.3 1.2-7.7 3.7-10.2 2.5-2.5 5.9-3.7 10.2-3.7h9.4c4.4 0 7.8 1.2 10.3 3.7 2.5 2.5 3.7 5.9 3.7 10.2v2c0 1-.5 1.5-1.5 1.5h-5.7c-1 0-1.5-.5-1.5-1.5v-1.2c0-2.6-.5-4.4-1.6-5.5-1.1-1.1-2.9-1.6-5.5-1.6h-5.6c-2.6 0-4.4.6-5.5 1.7-1.1 1.2-1.6 3.1-1.6 5.9v2.8c0 2.7 1.9 4.5 5.8 5.4 1.7.4 3.6.8 5.7 1.1 2 .3 4.1.7 6.2 1.3 2.1.6 4 1.4 5.7 2.4 1.7 1 3.1 2.5 4.2 4.5s1.6 4.4 1.6 7.3v3.5c0 4.3-1.2 7.7-3.7 10.2-2.5 2.5-5.9 3.7-10.2 3.7h-10c-4.3 0-7.8-1.2-10.2-3.7-2.5-2.6-3.8-6-3.8-10.4zM397 101.6v54.3c0 1-.5 1.5-1.5 1.5h-5.6c-1 0-1.5-.5-1.5-1.5v-54.3c0-1 .5-1.5 1.5-1.5h5.6c1-.1 1.5.4 1.5 1.5zM423.8 157.3h-5.5c-1 0-1.5-.5-1.5-1.5v-54.3c0-1 .5-1.5 1.5-1.5h5c.9 0 1.6.3 2 1l21.6 38.8h.4v-38.2c0-1 .5-1.5 1.5-1.5h5.5c1 0 1.5.5 1.5 1.5v54.3c0 1-.5 1.5-1.5 1.5h-4.8c-1 0-1.7-.5-2.3-1.4l-21.4-38.3h-.4v38.2c-.1.9-.6 1.4-1.6 1.4zM497.5 157.3H488c-4.4 0-7.8-1.2-10.2-3.7-2.4-2.4-3.6-5.8-3.6-10.2v-29.7c0-4.4 1.2-7.8 3.6-10.2 2.4-2.4 5.8-3.6 10.2-3.6h9.5c4.4 0 7.8 1.2 10.2 3.6 2.4 2.4 3.6 5.8 3.6 10.2v3.2c0 1.1-.5 1.6-1.5 1.6h-5.6c-1 0-1.5-.5-1.5-1.6v-2.8c0-4.4-2.1-6.6-6.4-6.6h-7c-4.3 0-6.4 2.2-6.4 6.6v29c0 4.4 2.1 6.6 6.4 6.6h7c4.3 0 6.4-2.2 6.4-6.6v-8c0-.6-.3-.9-1-.9h-7.2c-1 0-1.5-.5-1.5-1.5v-4.5c0-1 .5-1.5 1.5-1.5h15c1.2 0 1.9.6 1.9 1.9v15c0 4.3-1.2 7.7-3.7 10.2-2.5 2.3-5.9 3.5-10.2 3.5zM580.5 157.3h-10.3c-4.4 0-7.8-1.2-10.2-3.7-2.4-2.4-3.6-5.8-3.6-10.2v-29.7c0-4.4 1.2-7.8 3.6-10.2 2.4-2.4 5.8-3.6 10.2-3.6h10.3c4.3 0 7.7 1.2 10.2 3.6 2.4 2.4 3.7 5.8 3.7 10.2v4.3c0 1.1-.5 1.6-1.6 1.6h-5.6c-1 0-1.5-.5-1.5-1.6v-3.9c0-4.4-2.1-6.6-6.4-6.6h-7.8c-4.3 0-6.4 2.2-6.4 6.6v29c0 4.4 2.1 6.6 6.4 6.6h7.8c4.3 0 6.4-2.2 6.4-6.6v-3.9c0-1.1.5-1.6 1.5-1.6h5.6c1.1 0 1.6.5 1.6 1.6v4.3c0 4.3-1.2 7.7-3.7 10.2-2.4 2.4-5.8 3.6-10.2 3.6zM614.8 157.3h-6.4c-.8 0-1.1-.5-.9-1.5l15.5-54.3c.3-1 1-1.5 2.1-1.5h8.9c1.2 0 1.9.5 2.1 1.5l15.5 54.3c.2 1-.1 1.5-1 1.5h-6.3c-.5 0-.9-.1-1.1-.3-.2-.2-.4-.6-.5-1.2l-3.4-11.6h-19.6l-3.4 11.6c-.1 1-.6 1.5-1.5 1.5zm14.6-48.7l-7.8 28.5h16.1l-7.9-28.5h-.4zM706.1 100h10c1 0 1.5.5 1.5 1.5v54.3c0 1-.5 1.5-1.5 1.5h-5.5c-1 0-1.5-.5-1.5-1.5v-45h-.4l-11.6 32.6c-.4 1-1 1.4-2 1.4h-5.7c-.9 0-1.5-.5-1.9-1.4l-11.8-32.7h-.4v45.1c0 .6-.1 1-.3 1.2-.2.2-.6.3-1.2.3h-5.4c-1 0-1.5-.5-1.5-1.5v-54.3c0-1 .5-1.5 1.5-1.5h10c.7 0 1.1.3 1.4 1l12.2 34.4h.4l12.3-34.4c.1-.6.6-1 1.4-1zM744 157.3h-5.6c-1 0-1.5-.5-1.5-1.5v-54.3c0-1 .5-1.5 1.5-1.5h21.2c4.3 0 7.7 1.2 10.2 3.6 2.4 2.4 3.7 5.8 3.7 10.2v9.3c0 4.3-1.2 7.7-3.7 10.2-2.4 2.4-5.8 3.7-10.2 3.7h-13c-.7 0-1.1.3-1.1.9v18c0 .9-.5 1.4-1.5 1.4zm2.5-28h11.8c4.2 0 6.3-2.2 6.3-6.6v-8.5c0-4.4-2.1-6.6-6.3-6.6h-11.8c-.7 0-1 .3-1 .9v19.9c0 .6.3.9 1 .9zM793.4 157.3H787c-.8 0-1.1-.5-.9-1.5l15.5-54.3c.3-1 1-1.5 2.1-1.5h8.9c1.2 0 1.9.5 2.1 1.5l15.5 54.3c.2 1-.1 1.5-1 1.5h-6.3c-.5 0-.9-.1-1.1-.3-.2-.2-.4-.6-.5-1.2l-3.4-11.6h-19.6l-3.4 11.6c-.2 1-.7 1.5-1.5 1.5zm14.6-48.7l-7.8 28.5h16.1l-7.9-28.5h-.4zM854.5 101.6v54.3c0 1-.5 1.5-1.5 1.5h-5.6c-1 0-1.5-.5-1.5-1.5v-54.3c0-1 .5-1.5 1.5-1.5h5.6c1-.1 1.5.4 1.5 1.5zM896.7 157.3h-9.5c-4.4 0-7.8-1.2-10.2-3.7-2.4-2.4-3.6-5.8-3.6-10.2v-29.7c0-4.4 1.2-7.8 3.6-10.2 2.4-2.4 5.8-3.6 10.2-3.6h9.5c4.4 0 7.8 1.2 10.2 3.6 2.4 2.4 3.6 5.8 3.6 10.2v3.2c0 1.1-.5 1.6-1.5 1.6h-5.6c-1 0-1.5-.5-1.5-1.6v-2.8c0-4.4-2.1-6.6-6.4-6.6h-7c-4.3 0-6.4 2.2-6.4 6.6v29c0 4.4 2.1 6.6 6.4 6.6h7c4.3 0 6.4-2.2 6.4-6.6v-8c0-.6-.3-.9-1-.9h-7.2c-1 0-1.5-.5-1.5-1.5v-4.5c0-1 .5-1.5 1.5-1.5h15c1.2 0 1.9.6 1.9 1.9v15c0 4.3-1.2 7.7-3.7 10.2-2.5 2.3-5.9 3.5-10.2 3.5zM936 157.3h-5.5c-1 0-1.5-.5-1.5-1.5v-54.3c0-1 .5-1.5 1.5-1.5h5c.9 0 1.6.3 2 1l21.6 38.8h.4v-38.2c0-1 .5-1.5 1.5-1.5h5.5c1 0 1.5.5 1.5 1.5v54.3c0 1-.5 1.5-1.5 1.5h-4.8c-1 0-1.7-.5-2.3-1.4L938 117.7h-.4v38.2c-.1.9-.6 1.4-1.6 1.4zM986.1 143.4v-2.3c0-1 .5-1.5 1.5-1.5h5.7c1 0 1.5.5 1.5 1.5v1.6c0 2.5.5 4.3 1.6 5.4 1.1 1.1 2.9 1.6 5.5 1.6h6.1c2.6 0 4.4-.6 5.5-1.7 1.1-1.2 1.7-3 1.7-5.7v-2c0-1.9-.7-3.4-2.2-4.5-1.5-1.1-3.3-1.8-5.4-2.1-2.1-.3-4.5-.8-7-1.4-2.6-.6-4.9-1.3-7-2-2.1-.8-3.9-2.2-5.4-4.4-1.5-2.1-2.2-4.9-2.2-8.2V114c0-4.3 1.2-7.7 3.7-10.2 2.5-2.5 5.9-3.7 10.2-3.7h9.4c4.4 0 7.8 1.2 10.3 3.7 2.5 2.5 3.7 5.9 3.7 10.2v2c0 1-.5 1.5-1.5 1.5h-5.7c-1 0-1.5-.5-1.5-1.5v-1.2c0-2.6-.5-4.4-1.6-5.5-1.1-1.1-2.9-1.6-5.5-1.6h-5.6c-2.6 0-4.4.6-5.5 1.7-1.1 1.2-1.6 3.1-1.6 5.9v2.8c0 2.7 1.9 4.5 5.8 5.4 1.7.4 3.6.8 5.7 1.1 2 .3 4.1.7 6.2 1.3 2.1.6 4 1.4 5.7 2.4 1.7 1 3.1 2.5 4.2 4.5s1.6 4.4 1.6 7.3v3.5c0 4.3-1.2 7.7-3.7 10.2-2.5 2.5-5.9 3.7-10.2 3.7h-10c-4.3 0-7.8-1.2-10.2-3.7-2.5-2.6-3.8-6-3.8-10.4z"/>
</svg>
