<?xml version="1.0" standalone="no"?>
<!DOCTYPE svg PUBLIC "-//W3C//DTD SVG 20010904//EN"
 "http://www.w3.org/TR/2001/REC-SVG-20010904/DTD/svg10.dtd">
<svg version="1.0" xmlns="http://www.w3.org/2000/svg"
 width="388.000000pt" height="388.000000pt" viewBox="0 0 388.000000 388.000000"
 preserveAspectRatio="xMidYMid meet">
<metadata>
Created by potrace 1.11, written by Peter Selinger 2001-2013
</metadata>
<g transform="translate(0.000000,388.000000) scale(0.100000,-0.100000)"
fill="#000000" stroke="none">
<path d="M3085 3872 c-6 -5 -100 -49 -210 -99 -110 -51 -231 -106 -270 -124
-38 -17 -162 -73 -275 -124 -113 -51 -239 -109 -280 -128 -64 -29 -416 -190
-561 -255 -262 -119 -451 -207 -484 -227 -108 -64 -184 -171 -231 -325 -7 -23
-14 -2567 -7 -2582 2 -3 35 12 73 35 39 23 78 47 88 52 243 142 523 315 551
341 55 49 92 107 118 183 l22 66 1 770 c0 423 4 772 8 776 4 3 68 34 142 69
270 125 316 146 400 186 47 23 87 40 89 38 8 -7 3 -466 -5 -473 -5 -5 -133
-64 -284 -131 -151 -68 -279 -126 -283 -130 -4 -4 45 -58 110 -120 65 -62 219
-211 343 -330 495 -478 453 -441 475 -426 11 7 86 48 167 91 81 43 166 94 189
113 51 44 100 119 125 192 17 52 18 116 19 1300 1 685 -1 1251 -3 1258 -5 14
-14 15 -27 4z m-310 -1494 c-1 -700 -4 -968 -12 -983 -6 -11 -34 -32 -61 -47
l-49 -27 -61 57 c-33 31 -118 113 -188 181 l-126 124 43 20 c160 74 197 93
222 119 60 62 60 67 62 488 1 407 -2 440 -46 505 -48 70 -146 112 -237 103
-26 -3 -76 -19 -112 -36 -36 -16 -110 -51 -165 -77 -96 -46 -155 -73 -322
-151 -97 -45 -230 -107 -350 -164 l-93 -43 0 -856 c-1 -662 -4 -861 -13 -878
-12 -21 -71 -64 -134 -97 l-28 -14 0 961 c1 1069 -4 997 67 1050 27 20 204
103 626 293 86 39 153 70 227 104 39 18 194 89 345 158 151 69 302 137 335
153 33 15 62 26 65 24 3 -2 5 -437 5 -967z"/>
</g>
</svg>
